<?xml version="1.0" encoding="utf-8"?>
<!-- Svg Vector Icons : http://www.onlinewebfonts.com/icon -->
<!DOCTYPE svg PUBLIC "-//W3C//DTD SVG 1.1//EN" "http://www.w3.org/Graphics/SVG/1.1/DTD/svg11.dtd">
<svg version="1.1" xmlns="http://www.w3.org/2000/svg" xmlns:xlink="http://www.w3.org/1999/xlink" x="0px" y="0px" viewBox="0 0 1000 1000" enable-background="new 0 0 1000 1000" xml:space="preserve" fill="#ffffff">
<metadata> Svg Vector Icons : http://www.onlinewebfonts.com/icon </metadata>
<g><path d="M990,503.4c0,25.9-21,46.9-46.9,46.9H56.9c-25.9,0-46.9-21-46.9-46.9v-4.6c0-25.9,21-46.9,46.9-46.9h886.1c25.9,0,46.9,21,46.9,46.9V503.4z"/><path d="M430.9,131.1c18.3,18.3,18.3,48.1,0,66.4L93.1,535.2c-18.3,18.3-48.1,18.3-66.4,0l-2.9-2.9C5.5,514,5.5,484.3,23.9,466l337.7-337.7c18.3-18.3,48.1-18.3,66.4,0L430.9,131.1z"/><path d="M430.9,868.9c18.3-18.3,18.3-48.1,0-66.4L93.1,464.8c-18.3-18.3-48.1-18.3-66.4,0l-2.9,2.9C5.5,486,5.5,515.7,23.9,534l337.7,337.7c18.3,18.3,48.1,18.3,66.4,0L430.9,868.9z"/></g>
</svg>